# xmcd
#
# Track frame offsets:
#	150
#	14015
#	34808
#	50045
#	62698
#	76771
#	95996
#	114851
#	127595
#	143401
#	163228
#	183714
#	207086
#	224741
#
# Disc length: 3231 seconds
# Revision: 0
# Processed by: cddbd v1.5.2PL0 Copyright (c) Steve Scherf et al.
# Submitted via: dBpowerAMP V12.0
#
DISCID=c80c9d0e
DTITLE=Various Artist - Americana Sampler
DYEAR=1900
DGENRE=Country
TTITLE0=Jason Daniels - Early In The Morning
TTITLE1=Don Gallardo - Sinking Ships
TTITLE2=Craig Jackson - Much Too Long
TTITLE3=Zach Brooke - Sweet Ambrosia
TTITLE4=Josh Farrow - Devil Don't You Fool Me
TTITLE5=Allen Thompson - While I'm Young
TTITLE6=Rich Mahan - Favorite Shirt
TTITLE7=Don Gallardo - Bluebird (feat. Jill Andrews)
TTITLE8=Zach Brooke - Bitter Pill
TTITLE9=Allen Thompson - Dirt to Dust
TTITLE10=Craig Jackson - Sound of the World
TTITLE11=Jason Daniels - On The Highway
TTITLE12=Rich Mahan - Tequila Y Mota
TTITLE13=Josh Farrow - Worryin Kind
EXTD=
EXTT0=
EXTT1=
EXTT2=
EXTT3=
EXTT4=
EXTT5=
EXTT6=
EXTT7=
EXTT8=
EXTT9=
EXTT10=
EXTT11=
EXTT12=
EXTT13=
PLAYORDER=
